<?xml version="1.0" encoding="UTF-8" standalone="no"?>
<!DOCTYPE svg PUBLIC "-//W3C//DTD SVG 1.1//EN" "http://www.w3.org/Graphics/SVG/1.1/DTD/svg11.dtd">
<svg width="100%" height="100%" viewBox="0 0 3301 2000" version="1.1" xmlns="http://www.w3.org/2000/svg" xmlns:xlink="http://www.w3.org/1999/xlink" xml:space="preserve" xmlns:serif="http://www.serif.com/" style="fill-rule:evenodd;clip-rule:evenodd;stroke-linejoin:round;stroke-miterlimit:2;">
    <g transform="matrix(1,0,0,1,-76.8786,-289.144)">
        <g transform="matrix(3.42537,0,0,3.42537,-1898.64,-1602.52)">
            <path d="M745.223,785.195L1071.83,696.5L1183.27,791.175L1238.46,791.524L1251.99,761.461L1147.63,675.896L1309.54,631.871L1336.03,572.618L576.982,786.187L745.223,785.195Z" style="fill:rgb(185,19,0);"/>
        </g>
        <g transform="matrix(3.42537,0,0,3.42537,-1898.64,-1602.52)">
            <path d="M576.819,789.509L1236.3,796.43L1280.02,840.758L1147.26,838.281L1180.56,891.845L1333.29,923.807L1360.95,977.41L576.819,789.509ZM901.066,834.01L1067.84,868.623L1057.82,836.721L901.066,834.01Z" style="fill:rgb(247,129,0);"/>
        </g>
        <g transform="matrix(3.42537,0,0,3.42537,-1943.75,-1648.28)">
            <path d="M780.176,853.887L589.9,806.626L1361.78,1149.4L1354.52,994.146L1311.69,983.726L1308.99,1079.22L780.176,853.887Z" style="fill:rgb(170,213,238);"/>
        </g>
        <g transform="matrix(3.42537,0,0,3.42537,-1898.64,-1602.52)">
            <path d="M1357.97,566.431L1408.31,552.251L1310.84,792.649L1540.37,1017.45L1372.96,978.3L1346.66,926.736L1404.75,938.057L1259.72,794.157L1357.97,566.431Z" style="fill:rgb(255,184,28);"/>
        </g>
    </g>
</svg>
