<?xml version="1.0" encoding="UTF-8" standalone="no"?>
<!DOCTYPE svg PUBLIC "-//W3C//DTD SVG 1.1//EN" "http://www.w3.org/Graphics/SVG/1.1/DTD/svg11.dtd">
<svg width="100%" height="100%" viewBox="0 0 496 152" version="1.1" xmlns="http://www.w3.org/2000/svg" xmlns:xlink="http://www.w3.org/1999/xlink" xml:space="preserve" xmlns:serif="http://www.serif.com/" style="fill-rule:evenodd;clip-rule:evenodd;stroke-linejoin:round;stroke-miterlimit:2;">
    <g transform="matrix(1.3333,0,0,-1.3333,29.7057,681.552)">
        <g>
            <path d="M7.109,399.316L73.327,430.594L73.327,433.676L7.109,418.644L7.109,399.316Z" style="fill:rgb(255,184,28);fill-rule:nonzero;"/>
            <g transform="matrix(0.75,0,0,-0.75,-22.7729,511.164)">
                <path d="M126.653,1.975L7.09,19.09L7.09,130.461L126.653,103.318L126.653,1.975ZM361.66,28.576C352.304,28.576 344.899,32.473 344.899,42.608L344.899,51.574C344.899,58.69 348.698,61.807 355.324,65.606L363.22,70.091C366.631,71.941 367.703,73.696 367.703,77.205L367.703,82.565C367.703,86.754 365.264,88.606 361.854,88.606C358.444,88.606 356.007,86.754 356.007,82.565L356.007,72.235L344.899,72.235L344.899,84.121C344.899,94.744 351.427,98.351 361.76,98.351L361.954,98.351C372.283,98.351 378.814,94.648 378.814,84.121L378.814,74.28C378.814,66.971 374.915,63.948 368.385,60.245L360.392,55.764C357.179,53.911 356.008,52.353 356.008,48.844L356.008,44.167C356.008,39.877 358.446,38.318 361.76,38.318C365.072,38.318 367.508,39.877 367.508,44.167L367.508,53.719L378.616,53.719L378.616,42.607C378.616,32.472 371.211,28.575 361.855,28.575L361.66,28.576ZM259.632,29.354L259.632,97.572L289.846,97.572L289.846,87.633L270.939,87.633L270.939,67.947L286.532,67.947L286.532,58.007L270.939,58.007L270.939,39.296L289.551,39.296L289.551,29.354L259.632,29.354ZM460.074,29.354L460.074,97.572L490.288,97.572L490.288,87.633L471.381,87.633L471.381,67.947L486.974,67.947L486.974,58.007L471.381,58.007L471.381,39.297L489.995,39.297L489.995,29.354L460.074,29.354ZM146.79,29.356L146.79,97.574L158.096,97.574L158.096,70.382L163.749,70.382L172.42,97.574L183.922,97.574L174.174,68.628C178.851,66.583 181.581,62.489 181.581,55.959L181.581,43.776C181.581,33.446 174.761,29.355 164.429,29.355L146.79,29.356ZM193.562,29.356L193.562,97.574L204.867,97.574L204.867,29.356L193.562,29.356ZM213.345,29.356L226.209,97.574L238.684,97.574L251.546,29.356L240.632,29.356L232.74,79.934L224.845,29.356L213.345,29.356ZM300.268,29.356L300.268,97.574L311.571,97.574L311.571,70.382L317.224,70.382L325.898,97.574L337.399,97.574L327.653,68.628C332.33,66.583 335.06,62.489 335.06,55.959L335.06,43.776C335.06,33.446 328.236,29.355 317.907,29.355L300.268,29.356ZM389.82,29.356L389.82,97.574L401.126,97.574L401.126,29.356L389.82,29.356ZM413.694,29.356L413.694,97.572L431.138,97.572C441.471,97.572 448.291,93.479 448.291,83.149L448.291,43.778C448.291,33.448 441.47,29.355 431.138,29.355L413.694,29.356ZM158.093,39.296L164.035,39.296C167.739,39.296 170.272,40.657 170.272,45.531L170.272,54.399C170.272,59.271 167.739,60.637 164.035,60.637L158.093,60.637L158.093,39.296ZM311.569,39.296L317.517,39.296C321.22,39.296 323.752,40.657 323.752,45.531L323.752,54.399C323.752,59.271 321.22,60.637 317.517,60.637L311.569,60.637L311.569,39.296ZM424.995,39.296L430.743,39.296C434.447,39.296 436.98,40.658 436.98,45.533L436.98,81.395C436.98,86.266 434.447,87.632 430.743,87.632L424.995,87.632L424.995,39.296Z" style="fill:rgb(0,61,165);fill-rule:nonzero;"/>
            </g>
            <g transform="matrix(0.75,0,0,-0.75,-22.7729,511.164)">
                <path d="M89.327,28.575C78.984,28.575 72.155,32.865 72.155,43.011L72.155,83.981C72.155,94.615 78.983,98.421 89.327,98.421L89.519,98.421C99.859,98.421 106.687,94.519 106.687,83.981L106.687,69.836L95.374,69.836L95.374,82.227C95.374,87.008 93.03,88.469 89.422,88.469C85.812,88.469 83.472,87.008 83.472,82.227L83.472,44.766C83.472,39.987 85.812,38.523 89.422,38.523C93.03,38.523 95.374,39.987 95.374,44.766L95.374,55.497L106.687,55.497L106.687,43.012C106.687,32.866 99.86,28.576 89.519,28.576L89.327,28.575ZM27.044,29.354L27.044,83.981C27.044,94.617 33.676,98.419 44.017,98.419L44.409,98.419C54.749,98.419 61.381,94.519 61.381,83.981L61.381,29.354L50.068,29.354L50.068,82.226C50.068,87.103 47.921,88.467 44.215,88.467C40.506,88.467 38.358,87.103 38.358,82.226L38.358,29.354L27.044,29.354Z" style="fill:white;fill-rule:nonzero;"/>
            </g>
        </g>
    </g>
</svg>
